<mxfile host="Electron" agent="Mozilla/5.0 (Windows NT 10.0; Win64; x64) AppleWebKit/537.36 (KHTML, like Gecko) draw.io/24.7.17 Chrome/128.0.6613.36 Electron/32.0.1 Safari/537.36" version="24.7.17">
  <diagram name="Страница — 1" id="4sQbi-D6YyUrk-MKrGmO">
    <mxGraphModel dx="2117" dy="1790" grid="1" gridSize="10" guides="1" tooltips="1" connect="1" arrows="1" fold="1" page="1" pageScale="1" pageWidth="827" pageHeight="1169" math="0" shadow="0">
      <root>
        <mxCell id="0" />
        <mxCell id="1" parent="0" />
        <mxCell id="uTw_QPshERb4gcNWCnKC-1" value="начало" style="ellipse;whiteSpace=wrap;html=1;" parent="1" vertex="1">
          <mxGeometry x="180" width="120" height="40" as="geometry" />
        </mxCell>
        <mxCell id="uTw_QPshERb4gcNWCnKC-2" value="" style="endArrow=classic;html=1;rounded=0;exitX=0.5;exitY=1;exitDx=0;exitDy=0;entryX=0.5;entryY=0;entryDx=0;entryDy=0;" parent="1" source="uTw_QPshERb4gcNWCnKC-1" target="uTw_QPshERb4gcNWCnKC-3" edge="1">
          <mxGeometry width="50" height="50" relative="1" as="geometry">
            <mxPoint x="390" y="350" as="sourcePoint" />
            <mxPoint x="235" y="60" as="targetPoint" />
          </mxGeometry>
        </mxCell>
        <mxCell id="uTw_QPshERb4gcNWCnKC-3" value="int main()" style="shape=process;whiteSpace=wrap;html=1;backgroundOutline=1;" parent="1" vertex="1">
          <mxGeometry x="180" y="70" width="120" height="40" as="geometry" />
        </mxCell>
        <mxCell id="uTw_QPshERb4gcNWCnKC-4" value="" style="endArrow=none;dashed=1;html=1;rounded=0;" parent="1" edge="1">
          <mxGeometry width="50" height="50" relative="1" as="geometry">
            <mxPoint x="320" y="50" as="sourcePoint" />
            <mxPoint x="240" y="50" as="targetPoint" />
          </mxGeometry>
        </mxCell>
        <mxCell id="uTw_QPshERb4gcNWCnKC-5" value="&lt;div&gt;#include &amp;lt;iostream&amp;gt;&lt;/div&gt;&lt;div&gt;#include &amp;lt;string&amp;gt;&lt;/div&gt;&lt;div&gt;#include &amp;lt;clocale&amp;gt;&lt;/div&gt;&lt;div&gt;using namespace std;&lt;/div&gt;&lt;div&gt;int i, ns, k, a = 0;&lt;br&gt;&lt;/div&gt;&lt;div&gt;string str;&lt;br&gt;&lt;/div&gt;" style="strokeWidth=2;html=1;shape=mxgraph.flowchart.annotation_1;align=left;pointerEvents=1;" parent="1" vertex="1">
          <mxGeometry x="320" width="30" height="100" as="geometry" />
        </mxCell>
        <mxCell id="uTw_QPshERb4gcNWCnKC-6" value="" style="endArrow=classic;html=1;rounded=0;exitX=0.5;exitY=1;exitDx=0;exitDy=0;" parent="1" source="uTw_QPshERb4gcNWCnKC-3" edge="1">
          <mxGeometry width="50" height="50" relative="1" as="geometry">
            <mxPoint x="390" y="350" as="sourcePoint" />
            <mxPoint x="240" y="130" as="targetPoint" />
          </mxGeometry>
        </mxCell>
        <mxCell id="uTw_QPshERb4gcNWCnKC-7" value="setlocale(LC_ALL, &quot;RUS&quot;);" style="rounded=0;whiteSpace=wrap;html=1;" parent="1" vertex="1">
          <mxGeometry x="180" y="130" width="120" height="40" as="geometry" />
        </mxCell>
        <mxCell id="uTw_QPshERb4gcNWCnKC-8" value="" style="endArrow=classic;html=1;rounded=0;exitX=0.5;exitY=1;exitDx=0;exitDy=0;" parent="1" edge="1">
          <mxGeometry width="50" height="50" relative="1" as="geometry">
            <mxPoint x="240" y="170" as="sourcePoint" />
            <mxPoint x="240" y="190" as="targetPoint" />
          </mxGeometry>
        </mxCell>
        <mxCell id="uTw_QPshERb4gcNWCnKC-9" value="system(&quot;chcp 1251&amp;gt;nul&quot;);" style="rounded=0;whiteSpace=wrap;html=1;" parent="1" vertex="1">
          <mxGeometry x="180" y="190" width="120" height="40" as="geometry" />
        </mxCell>
        <mxCell id="uTw_QPshERb4gcNWCnKC-10" value="" style="endArrow=classic;html=1;rounded=0;exitX=0.5;exitY=1;exitDx=0;exitDy=0;" parent="1" edge="1">
          <mxGeometry width="50" height="50" relative="1" as="geometry">
            <mxPoint x="239.5" y="230" as="sourcePoint" />
            <mxPoint x="239.5" y="250" as="targetPoint" />
          </mxGeometry>
        </mxCell>
        <mxCell id="uTw_QPshERb4gcNWCnKC-11" value="cout &amp;lt;&amp;lt; &quot;Введите строку: &quot;;" style="shape=parallelogram;perimeter=parallelogramPerimeter;whiteSpace=wrap;html=1;fixedSize=1;" parent="1" vertex="1">
          <mxGeometry x="150" y="250" width="180" height="40" as="geometry" />
        </mxCell>
        <mxCell id="uTw_QPshERb4gcNWCnKC-12" value="" style="endArrow=classic;html=1;rounded=0;exitX=0.5;exitY=1;exitDx=0;exitDy=0;" parent="1" edge="1">
          <mxGeometry width="50" height="50" relative="1" as="geometry">
            <mxPoint x="239.5" y="290" as="sourcePoint" />
            <mxPoint x="239.5" y="310" as="targetPoint" />
          </mxGeometry>
        </mxCell>
        <mxCell id="uTw_QPshERb4gcNWCnKC-13" value="getline(cin, str);" style="rounded=0;whiteSpace=wrap;html=1;" parent="1" vertex="1">
          <mxGeometry x="180" y="310" width="120" height="40" as="geometry" />
        </mxCell>
        <mxCell id="uTw_QPshERb4gcNWCnKC-14" value="" style="endArrow=classic;html=1;rounded=0;exitX=0.5;exitY=1;exitDx=0;exitDy=0;" parent="1" edge="1">
          <mxGeometry width="50" height="50" relative="1" as="geometry">
            <mxPoint x="239.5" y="350" as="sourcePoint" />
            <mxPoint x="239.5" y="370" as="targetPoint" />
          </mxGeometry>
        </mxCell>
        <mxCell id="uTw_QPshERb4gcNWCnKC-15" value="&amp;nbsp;cout &amp;lt;&amp;lt; &quot;Строка наоборот: &quot;;" style="shape=parallelogram;perimeter=parallelogramPerimeter;whiteSpace=wrap;html=1;fixedSize=1;" parent="1" vertex="1">
          <mxGeometry x="150" y="370" width="180" height="40" as="geometry" />
        </mxCell>
        <mxCell id="uTw_QPshERb4gcNWCnKC-16" value="" style="endArrow=classic;html=1;rounded=0;exitX=0.5;exitY=1;exitDx=0;exitDy=0;" parent="1" edge="1">
          <mxGeometry width="50" height="50" relative="1" as="geometry">
            <mxPoint x="239.5" y="410" as="sourcePoint" />
            <mxPoint x="239.5" y="430" as="targetPoint" />
          </mxGeometry>
        </mxCell>
        <UserObject label="for (i = str.length(); i &gt;= 0; i--)" link="for (i = str.length(); i &gt;= 0; i--)" id="uTw_QPshERb4gcNWCnKC-17">
          <mxCell style="shape=hexagon;perimeter=hexagonPerimeter2;whiteSpace=wrap;html=1;fixedSize=1;" parent="1" vertex="1">
            <mxGeometry x="140" y="430" width="200" height="50" as="geometry" />
          </mxCell>
        </UserObject>
        <mxCell id="uTw_QPshERb4gcNWCnKC-18" value="" style="endArrow=classic;html=1;rounded=0;" parent="1" edge="1">
          <mxGeometry width="50" height="50" relative="1" as="geometry">
            <mxPoint x="239.5" y="480" as="sourcePoint" />
            <mxPoint x="240" y="500" as="targetPoint" />
          </mxGeometry>
        </mxCell>
        <mxCell id="uTw_QPshERb4gcNWCnKC-19" value="if (str[i] == &#39; &#39;)" style="rhombus;whiteSpace=wrap;html=1;" parent="1" vertex="1">
          <mxGeometry x="157.5" y="500" width="165" height="50" as="geometry" />
        </mxCell>
        <mxCell id="uTw_QPshERb4gcNWCnKC-20" value="" style="endArrow=classic;html=1;rounded=0;exitX=0;exitY=0.5;exitDx=0;exitDy=0;" parent="1" source="uTw_QPshERb4gcNWCnKC-19" edge="1">
          <mxGeometry width="50" height="50" relative="1" as="geometry">
            <mxPoint x="158" y="530" as="sourcePoint" />
            <mxPoint x="120" y="560" as="targetPoint" />
            <Array as="points">
              <mxPoint x="120" y="525" />
            </Array>
          </mxGeometry>
        </mxCell>
        <UserObject label="for (k = i + 1; k &amp;lt; (i + a); k++)&amp;nbsp;" link="for (i = str.length(); i &gt;= 0; i--)" id="uTw_QPshERb4gcNWCnKC-21">
          <mxCell style="shape=hexagon;perimeter=hexagonPerimeter2;whiteSpace=wrap;html=1;fixedSize=1;" parent="1" vertex="1">
            <mxGeometry x="20" y="560" width="200" height="50" as="geometry" />
          </mxCell>
        </UserObject>
        <mxCell id="uTw_QPshERb4gcNWCnKC-22" value="" style="endArrow=classic;html=1;rounded=0;" parent="1" edge="1">
          <mxGeometry width="50" height="50" relative="1" as="geometry">
            <mxPoint x="120" y="610" as="sourcePoint" />
            <mxPoint x="120" y="630" as="targetPoint" />
          </mxGeometry>
        </mxCell>
        <mxCell id="uTw_QPshERb4gcNWCnKC-23" value="cout &amp;lt;&amp;lt; str[k];" style="shape=parallelogram;perimeter=parallelogramPerimeter;whiteSpace=wrap;html=1;fixedSize=1;" parent="1" vertex="1">
          <mxGeometry x="50" y="630" width="130" height="40" as="geometry" />
        </mxCell>
        <mxCell id="uTw_QPshERb4gcNWCnKC-24" value="" style="endArrow=classic;html=1;rounded=0;entryX=0;entryY=0.5;entryDx=0;entryDy=0;" parent="1" target="uTw_QPshERb4gcNWCnKC-21" edge="1">
          <mxGeometry width="50" height="50" relative="1" as="geometry">
            <mxPoint x="120" y="670" as="sourcePoint" />
            <mxPoint x="120" y="700" as="targetPoint" />
            <Array as="points">
              <mxPoint x="120" y="680" />
              <mxPoint y="680" />
              <mxPoint y="585" />
            </Array>
          </mxGeometry>
        </mxCell>
        <mxCell id="uTw_QPshERb4gcNWCnKC-25" value="" style="endArrow=classic;html=1;rounded=0;" parent="1" target="uTw_QPshERb4gcNWCnKC-26" edge="1">
          <mxGeometry width="50" height="50" relative="1" as="geometry">
            <mxPoint x="220" y="585" as="sourcePoint" />
            <mxPoint x="240" y="630" as="targetPoint" />
            <Array as="points">
              <mxPoint x="240" y="585" />
            </Array>
          </mxGeometry>
        </mxCell>
        <mxCell id="uTw_QPshERb4gcNWCnKC-26" value="&amp;nbsp;a = 0;" style="rounded=0;whiteSpace=wrap;html=1;" parent="1" vertex="1">
          <mxGeometry x="195" y="630" width="85" height="40" as="geometry" />
        </mxCell>
        <mxCell id="uTw_QPshERb4gcNWCnKC-27" value="" style="endArrow=classic;html=1;rounded=0;exitX=0.5;exitY=1;exitDx=0;exitDy=0;" parent="1" source="uTw_QPshERb4gcNWCnKC-26" edge="1">
          <mxGeometry width="50" height="50" relative="1" as="geometry">
            <mxPoint x="390" y="650" as="sourcePoint" />
            <mxPoint x="238" y="690" as="targetPoint" />
          </mxGeometry>
        </mxCell>
        <mxCell id="uTw_QPshERb4gcNWCnKC-28" value="cout &amp;lt;&amp;lt; &quot; &quot;;" style="shape=parallelogram;perimeter=parallelogramPerimeter;whiteSpace=wrap;html=1;fixedSize=1;" parent="1" vertex="1">
          <mxGeometry x="182.5" y="690" width="110" height="30" as="geometry" />
        </mxCell>
        <mxCell id="uTw_QPshERb4gcNWCnKC-29" value="" style="endArrow=classic;html=1;rounded=0;exitX=1;exitY=0.5;exitDx=0;exitDy=0;" parent="1" source="uTw_QPshERb4gcNWCnKC-19" edge="1">
          <mxGeometry width="50" height="50" relative="1" as="geometry">
            <mxPoint x="390" y="650" as="sourcePoint" />
            <mxPoint x="280" y="730" as="targetPoint" />
            <Array as="points">
              <mxPoint x="360" y="525" />
              <mxPoint x="360" y="730" />
            </Array>
          </mxGeometry>
        </mxCell>
        <mxCell id="uTw_QPshERb4gcNWCnKC-30" value="" style="endArrow=classic;html=1;rounded=0;exitX=0.5;exitY=1;exitDx=0;exitDy=0;" parent="1" source="uTw_QPshERb4gcNWCnKC-28" edge="1">
          <mxGeometry width="50" height="50" relative="1" as="geometry">
            <mxPoint x="390" y="650" as="sourcePoint" />
            <mxPoint x="280" y="730" as="targetPoint" />
            <Array as="points">
              <mxPoint x="238" y="730" />
            </Array>
          </mxGeometry>
        </mxCell>
        <mxCell id="uTw_QPshERb4gcNWCnKC-31" value="" style="endArrow=classic;html=1;rounded=0;" parent="1" target="uTw_QPshERb4gcNWCnKC-32" edge="1">
          <mxGeometry width="50" height="50" relative="1" as="geometry">
            <mxPoint x="280" y="730" as="sourcePoint" />
            <mxPoint x="280" y="750" as="targetPoint" />
          </mxGeometry>
        </mxCell>
        <mxCell id="uTw_QPshERb4gcNWCnKC-32" value="&amp;nbsp;a++;" style="rounded=0;whiteSpace=wrap;html=1;" parent="1" vertex="1">
          <mxGeometry x="220" y="750" width="120" height="30" as="geometry" />
        </mxCell>
        <mxCell id="uTw_QPshERb4gcNWCnKC-33" value="" style="endArrow=classic;html=1;rounded=0;" parent="1" edge="1">
          <mxGeometry width="50" height="50" relative="1" as="geometry">
            <mxPoint x="280" y="780" as="sourcePoint" />
            <mxPoint x="280" y="800" as="targetPoint" />
          </mxGeometry>
        </mxCell>
        <mxCell id="TGwsk7M17R9ZRukTBTgE-9" style="edgeStyle=orthogonalEdgeStyle;rounded=0;orthogonalLoop=1;jettySize=auto;html=1;exitX=1;exitY=0.5;exitDx=0;exitDy=0;" edge="1" parent="1" source="uTw_QPshERb4gcNWCnKC-35">
          <mxGeometry relative="1" as="geometry">
            <mxPoint x="360" y="1000" as="targetPoint" />
            <Array as="points">
              <mxPoint x="400" y="825" />
              <mxPoint x="400" y="1000" />
            </Array>
          </mxGeometry>
        </mxCell>
        <mxCell id="uTw_QPshERb4gcNWCnKC-35" value="if (i == 0)" style="rhombus;whiteSpace=wrap;html=1;" parent="1" vertex="1">
          <mxGeometry x="210" y="800" width="140" height="50" as="geometry" />
        </mxCell>
        <mxCell id="uTw_QPshERb4gcNWCnKC-36" value="" style="endArrow=classic;html=1;rounded=0;exitX=0;exitY=0.5;exitDx=0;exitDy=0;" parent="1" source="uTw_QPshERb4gcNWCnKC-35" edge="1">
          <mxGeometry width="50" height="50" relative="1" as="geometry">
            <mxPoint x="200" y="820" as="sourcePoint" />
            <mxPoint x="190" y="860" as="targetPoint" />
            <Array as="points">
              <mxPoint x="190" y="825" />
            </Array>
          </mxGeometry>
        </mxCell>
        <mxCell id="TGwsk7M17R9ZRukTBTgE-2" style="edgeStyle=orthogonalEdgeStyle;rounded=0;orthogonalLoop=1;jettySize=auto;html=1;exitX=0.5;exitY=1;exitDx=0;exitDy=0;" edge="1" parent="1" source="uTw_QPshERb4gcNWCnKC-37">
          <mxGeometry relative="1" as="geometry">
            <mxPoint x="190" y="920" as="targetPoint" />
          </mxGeometry>
        </mxCell>
        <mxCell id="TGwsk7M17R9ZRukTBTgE-5" style="edgeStyle=orthogonalEdgeStyle;rounded=0;orthogonalLoop=1;jettySize=auto;html=1;exitX=1;exitY=0.5;exitDx=0;exitDy=0;" edge="1" parent="1" source="uTw_QPshERb4gcNWCnKC-37" target="TGwsk7M17R9ZRukTBTgE-6">
          <mxGeometry relative="1" as="geometry">
            <mxPoint x="290" y="920" as="targetPoint" />
          </mxGeometry>
        </mxCell>
        <mxCell id="uTw_QPshERb4gcNWCnKC-37" value="for (ns = 0; ns &amp;lt; a; ns++)&amp;nbsp;" style="shape=hexagon;perimeter=hexagonPerimeter2;whiteSpace=wrap;html=1;fixedSize=1;" parent="1" vertex="1">
          <mxGeometry x="130" y="860" width="130" height="40" as="geometry" />
        </mxCell>
        <mxCell id="TGwsk7M17R9ZRukTBTgE-4" style="edgeStyle=orthogonalEdgeStyle;rounded=0;orthogonalLoop=1;jettySize=auto;html=1;exitX=0.5;exitY=1;exitDx=0;exitDy=0;entryX=0;entryY=0.5;entryDx=0;entryDy=0;" edge="1" parent="1" source="TGwsk7M17R9ZRukTBTgE-3" target="uTw_QPshERb4gcNWCnKC-37">
          <mxGeometry relative="1" as="geometry">
            <mxPoint x="190" y="980" as="targetPoint" />
            <Array as="points">
              <mxPoint x="190" y="980" />
              <mxPoint x="110" y="980" />
              <mxPoint x="110" y="880" />
            </Array>
          </mxGeometry>
        </mxCell>
        <mxCell id="TGwsk7M17R9ZRukTBTgE-3" value="cout &amp;lt;&amp;lt; str[ns];" style="shape=parallelogram;perimeter=parallelogramPerimeter;whiteSpace=wrap;html=1;fixedSize=1;" vertex="1" parent="1">
          <mxGeometry x="130" y="920" width="120" height="40" as="geometry" />
        </mxCell>
        <mxCell id="TGwsk7M17R9ZRukTBTgE-8" style="edgeStyle=orthogonalEdgeStyle;rounded=0;orthogonalLoop=1;jettySize=auto;html=1;exitX=0.5;exitY=1;exitDx=0;exitDy=0;" edge="1" parent="1" source="TGwsk7M17R9ZRukTBTgE-6">
          <mxGeometry relative="1" as="geometry">
            <mxPoint x="360" y="1000" as="targetPoint" />
            <Array as="points">
              <mxPoint x="320" y="1000" />
            </Array>
          </mxGeometry>
        </mxCell>
        <mxCell id="TGwsk7M17R9ZRukTBTgE-6" value="a=0;" style="rounded=0;whiteSpace=wrap;html=1;" vertex="1" parent="1">
          <mxGeometry x="270" y="920" width="100" height="40" as="geometry" />
        </mxCell>
        <mxCell id="TGwsk7M17R9ZRukTBTgE-10" value="" style="endArrow=classic;html=1;rounded=0;entryX=0;entryY=0.5;entryDx=0;entryDy=0;" edge="1" parent="1" target="uTw_QPshERb4gcNWCnKC-17">
          <mxGeometry width="50" height="50" relative="1" as="geometry">
            <mxPoint x="360" y="1000" as="sourcePoint" />
            <mxPoint x="-140" y="990" as="targetPoint" />
            <Array as="points">
              <mxPoint x="360" y="1020" />
              <mxPoint x="-30" y="1020" />
              <mxPoint x="-30" y="455" />
            </Array>
          </mxGeometry>
        </mxCell>
        <mxCell id="TGwsk7M17R9ZRukTBTgE-11" value="" style="endArrow=classic;html=1;rounded=0;exitX=1;exitY=0.5;exitDx=0;exitDy=0;" edge="1" parent="1" source="uTw_QPshERb4gcNWCnKC-17">
          <mxGeometry width="50" height="50" relative="1" as="geometry">
            <mxPoint x="70" y="670" as="sourcePoint" />
            <mxPoint x="270" y="1080" as="targetPoint" />
            <Array as="points">
              <mxPoint x="440" y="455" />
              <mxPoint x="440" y="1060" />
              <mxPoint x="270" y="1060" />
            </Array>
          </mxGeometry>
        </mxCell>
        <mxCell id="TGwsk7M17R9ZRukTBTgE-12" value="return 0;" style="ellipse;whiteSpace=wrap;html=1;" vertex="1" parent="1">
          <mxGeometry x="210" y="1080" width="120" height="40" as="geometry" />
        </mxCell>
        <mxCell id="TGwsk7M17R9ZRukTBTgE-13" value="{" style="text;html=1;align=center;verticalAlign=middle;resizable=0;points=[];autosize=1;strokeColor=none;fillColor=none;" vertex="1" parent="1">
          <mxGeometry x="195" y="108" width="30" height="30" as="geometry" />
        </mxCell>
        <mxCell id="TGwsk7M17R9ZRukTBTgE-14" value="}" style="text;html=1;align=center;verticalAlign=middle;resizable=0;points=[];autosize=1;strokeColor=none;fillColor=none;" vertex="1" parent="1">
          <mxGeometry x="305" y="1110" width="30" height="30" as="geometry" />
        </mxCell>
        <mxCell id="TGwsk7M17R9ZRukTBTgE-15" value="1" style="text;html=1;align=center;verticalAlign=middle;resizable=0;points=[];autosize=1;strokeColor=none;fillColor=none;" vertex="1" parent="1">
          <mxGeometry x="185" y="798" width="30" height="30" as="geometry" />
        </mxCell>
        <mxCell id="TGwsk7M17R9ZRukTBTgE-16" value="0" style="text;html=1;align=center;verticalAlign=middle;resizable=0;points=[];autosize=1;strokeColor=none;fillColor=none;" vertex="1" parent="1">
          <mxGeometry x="365" y="800" width="30" height="30" as="geometry" />
        </mxCell>
        <mxCell id="TGwsk7M17R9ZRukTBTgE-17" value="1" style="text;html=1;align=center;verticalAlign=middle;resizable=0;points=[];autosize=1;strokeColor=none;fillColor=none;" vertex="1" parent="1">
          <mxGeometry x="125" y="498" width="30" height="30" as="geometry" />
        </mxCell>
        <mxCell id="TGwsk7M17R9ZRukTBTgE-18" value="0" style="text;html=1;align=center;verticalAlign=middle;resizable=0;points=[];autosize=1;strokeColor=none;fillColor=none;" vertex="1" parent="1">
          <mxGeometry x="315" y="498" width="30" height="30" as="geometry" />
        </mxCell>
        <mxCell id="TGwsk7M17R9ZRukTBTgE-19" value="1" style="text;html=1;align=center;verticalAlign=middle;resizable=0;points=[];autosize=1;strokeColor=none;fillColor=none;" vertex="1" parent="1">
          <mxGeometry x="125" y="608" width="30" height="30" as="geometry" />
        </mxCell>
        <mxCell id="TGwsk7M17R9ZRukTBTgE-20" value="0" style="text;html=1;align=center;verticalAlign=middle;resizable=0;points=[];autosize=1;strokeColor=none;fillColor=none;" vertex="1" parent="1">
          <mxGeometry x="215" y="560" width="30" height="30" as="geometry" />
        </mxCell>
        <mxCell id="TGwsk7M17R9ZRukTBTgE-21" value="1" style="text;html=1;align=center;verticalAlign=middle;resizable=0;points=[];autosize=1;strokeColor=none;fillColor=none;" vertex="1" parent="1">
          <mxGeometry x="240" y="470" width="30" height="30" as="geometry" />
        </mxCell>
        <mxCell id="TGwsk7M17R9ZRukTBTgE-22" value="0" style="text;html=1;align=center;verticalAlign=middle;resizable=0;points=[];autosize=1;strokeColor=none;fillColor=none;" vertex="1" parent="1">
          <mxGeometry x="365" y="430" width="30" height="30" as="geometry" />
        </mxCell>
        <mxCell id="TGwsk7M17R9ZRukTBTgE-23" value="1" style="text;html=1;align=center;verticalAlign=middle;resizable=0;points=[];autosize=1;strokeColor=none;fillColor=none;" vertex="1" parent="1">
          <mxGeometry x="185" y="898" width="30" height="30" as="geometry" />
        </mxCell>
        <mxCell id="TGwsk7M17R9ZRukTBTgE-24" value="0" style="text;html=1;align=center;verticalAlign=middle;resizable=0;points=[];autosize=1;strokeColor=none;fillColor=none;" vertex="1" parent="1">
          <mxGeometry x="262.5" y="850" width="30" height="30" as="geometry" />
        </mxCell>
        <mxCell id="TGwsk7M17R9ZRukTBTgE-25" value="{" style="text;html=1;align=center;verticalAlign=middle;resizable=0;points=[];autosize=1;strokeColor=none;fillColor=none;" vertex="1" parent="1">
          <mxGeometry x="140" y="830" width="30" height="30" as="geometry" />
        </mxCell>
        <mxCell id="TGwsk7M17R9ZRukTBTgE-26" value="}" style="text;html=1;align=center;verticalAlign=middle;resizable=0;points=[];autosize=1;strokeColor=none;fillColor=none;" vertex="1" parent="1">
          <mxGeometry x="322.5" y="960" width="30" height="30" as="geometry" />
        </mxCell>
        <mxCell id="TGwsk7M17R9ZRukTBTgE-27" value="{" style="text;html=1;align=center;verticalAlign=middle;resizable=0;points=[];autosize=1;strokeColor=none;fillColor=none;" vertex="1" parent="1">
          <mxGeometry x="55" y="528" width="30" height="30" as="geometry" />
        </mxCell>
        <mxCell id="TGwsk7M17R9ZRukTBTgE-28" value="}" style="text;html=1;align=center;verticalAlign=middle;resizable=0;points=[];autosize=1;strokeColor=none;fillColor=none;" vertex="1" parent="1">
          <mxGeometry x="250" y="710" width="30" height="30" as="geometry" />
        </mxCell>
      </root>
    </mxGraphModel>
  </diagram>
</mxfile>
